<?xml version="1.0" encoding="utf-8"?>
<!-- Generator: Adobe Illustrator 20.1.0, SVG Export Plug-In . SVG Version: 6.00 Build 0)  -->
<svg version="1.1" id="Layer_1" xmlns="http://www.w3.org/2000/svg" xmlns:xlink="http://www.w3.org/1999/xlink" x="0px" y="0px"
	 viewBox="0 0 184 45" style="enable-background:new 0 0 184 45;" xml:space="preserve">
<style type="text/css">
	.st0{clip-path:url(#SVGID_2_);}
	.st1{clip-path:url(#SVGID_4_);fill:#00E205;}
	.st2{clip-path:url(#SVGID_4_);fill:#FFFFFF;}
</style>
<g id="Logo_-_White">
	<g>
		<defs>
			<rect id="SVGID_1_" x="0.3" width="183.4" height="45"/>
		</defs>
		<clipPath id="SVGID_2_">
			<use xlink:href="#SVGID_1_"  style="overflow:visible;"/>
		</clipPath>
		<g class="st0">
			<defs>
				<rect id="SVGID_3_" x="0.3" width="183.4" height="45"/>
			</defs>
			<clipPath id="SVGID_4_">
				<use xlink:href="#SVGID_3_"  style="overflow:visible;"/>
			</clipPath>
			<path class="st1" d="M36.2,31.1c-2.6,2.7-6.3,4.5-10.3,4.8v-4.8H36.2z M19.6,35.9c-4-0.3-7.7-2.1-10.3-4.8h10.3V35.9z M45.3,0
				H22.8C10.4,0,0.3,10,0.3,22.5C0.3,34.9,10.4,45,22.8,45c11.9,0,21.6-9.2,22.5-20.9V0z"/>
			<polygon class="st2" points="112.7,19.2 112.7,19.2 112.7,22.4 112.7,22.4 112.7,22.5 117,22.5 117,18.8 112.7,18.8 			"/>
			<path class="st2" d="M60.6,15.5c1.5,0,3.2-0.6,3.9-2h0.1v0.4c0,2.3-1.1,3.9-3.5,3.9c-1.1,0-2-0.4-2.5-1.4h-4.9
				c0.1,0.8,0.4,1.5,0.9,2.2c1.4,2.1,3.8,2.8,6.3,2.8c2.6,0,5.8-1,7.2-3.4c0.8-1.4,0.9-3.1,0.9-4.7V0.7h-4.3v1.3h-0.1
				c-0.8-1.3-2.5-1.8-3.9-1.8c-4.4,0-7.2,3.5-7.2,7.7C53.4,12.1,56.3,15.5,60.6,15.5 M61.1,4.3c2.1,0,3.5,1.6,3.5,3.7
				s-1.4,3.6-3.5,3.6c-2.1,0-3.4-1.7-3.4-3.7C57.6,5.9,59.1,4.3,61.1,4.3"/>
			<path class="st2" d="M75.5,7.2c0-2.2,1.5-2.6,3.4-2.6V0.2c-1.6,0-2.8,0.5-3.6,2h-0.1V0.7h-4V15h4.3V7.2z"/>
			<path class="st2" d="M93.4,10.5H89c-0.7,0.9-1.4,1.3-2.6,1.3c-1.7,0-3.1-1-3.3-2.7h10.7c0.1-0.4,0.1-0.7,0.1-1.1
				c0-4.3-3.2-7.8-7.5-7.8c-4.2,0-7.5,3.5-7.5,7.7c0,4.2,3.4,7.6,7.6,7.6C89.7,15.5,92.2,13.4,93.4,10.5 M86.4,3.8
				c1.5,0,2.9,0.9,3.2,2.4h-6.5C83.5,4.7,84.8,3.8,86.4,3.8"/>
			<path class="st2" d="M102,15.5c3.2,0,5.7-2.1,7-4.9h-4.4c-0.7,0.9-1.4,1.3-2.6,1.3c-1.7,0-3.1-1-3.3-2.7h10.7
				c0.1-0.4,0.1-0.7,0.1-1.1c0-4.3-3.2-7.8-7.5-7.8c-4.2,0-7.5,3.5-7.5,7.7C94.4,12.1,97.8,15.5,102,15.5 M101.9,3.8
				c1.5,0,2.9,0.9,3.2,2.4h-6.5C99,4.7,100.4,3.8,101.9,3.8"/>
			<path class="st2" d="M119.7,15h4.3V6.1c0-1.7-0.3-3.5-1.6-4.6c-0.9-0.8-2.4-1.2-3.7-1.2c-1.7,0-3,0.5-3.9,2h-0.1V0.7h-4V15h4.3
				V7.2c0-1.7,0.5-3,2.4-3c1.9,0,2.2,1.4,2.2,3V15z"/>
			<path class="st2" d="M146,0.2c-1.9,0-3.5,0.9-4.5,2.5c-0.9-1.6-2.3-2.5-4.1-2.5c-1.6,0-3.1,0.5-3.9,2h-0.1V0.7h-4V15h4.3V7.4
				c0-1.7,0.4-3.2,2.4-3.2c1.8,0,2.1,1.5,2.1,3V15h4.3V7.2c0-1.6,0.5-3,2.4-3c2,0,2.2,1.6,2.2,3.2V15h4.3V7.2c0-2.2,0.1-3.9-1.5-5.5
				C148.7,0.7,147.4,0.2,146,0.2"/>
			<path class="st2" d="M164.2,2.2L164.2,2.2c-0.9-1.4-2.7-2-4.2-2c-4.3,0-7.2,3.5-7.2,7.6c0,4.2,2.8,7.6,7.2,7.6
				c1.5,0,3.4-0.6,4.2-2h0.1V15h4.3V0.7h-4.3V2.2z M160.6,11.5c-2,0-3.6-1.6-3.6-3.6c0-2,1.4-3.7,3.5-3.7c2.1,0,3.6,1.5,3.6,3.6
				C164.2,9.9,162.7,11.5,160.6,11.5"/>
			<path class="st2" d="M182.1,1.5c-0.9-0.8-2.4-1.2-3.7-1.2c-1.7,0-3,0.5-3.9,2h-0.1V0.7h-4V15h4.3V7.2c0-1.7,0.5-3,2.4-3
				c1.9,0,2.2,1.4,2.2,3V15h4.3V6.1C183.7,4.4,183.4,2.6,182.1,1.5"/>
			<path class="st2" d="M64.6,25.3L64.6,25.3c-0.9-1.3-2.5-1.8-4-1.8c-4.4,0-7.2,3.5-7.2,7.7c0,4.2,2.9,7.5,7.2,7.5
				c1.5,0,3.2-0.6,3.9-2h0.1v0.4c0,2.3-1.1,3.9-3.5,3.9c-1.1,0-2-0.4-2.5-1.4h-4.9c0.1,0.8,0.4,1.5,0.9,2.2c1.4,2.1,3.8,2.8,6.3,2.8
				c2.6,0,5.8-1,7.2-3.4c0.8-1.4,0.9-3.1,0.9-4.7V23.9h-4.3V25.3z M61.1,34.7c-2.1,0-3.4-1.7-3.4-3.7c0-1.9,1.5-3.6,3.5-3.6
				c2.1,0,3.5,1.6,3.5,3.7C64.6,33.2,63.1,34.7,61.1,34.7"/>
			<path class="st2" d="M81.8,25.5L81.8,25.5c-0.9-1.4-2.7-2-4.2-2c-4.3,0-7.2,3.5-7.2,7.6c0,4.2,2.8,7.6,7.2,7.6
				c1.5,0,3.4-0.6,4.2-2h0.1v1.5h4.3V23.9h-4.3V25.5z M78.3,34.7c-2,0-3.6-1.6-3.6-3.6c0-2,1.4-3.7,3.5-3.7c2.1,0,3.6,1.5,3.6,3.6
				C81.8,33.1,80.3,34.7,78.3,34.7"/>
			<path class="st2" d="M105.1,23.5c-1.9,0-3.5,0.9-4.5,2.5c-0.9-1.6-2.3-2.5-4.1-2.5c-1.6,0-3.1,0.5-3.9,2h-0.1v-1.5h-4v14.3h4.3
				v-7.6c0-1.7,0.4-3.2,2.4-3.2c1.8,0,2.1,1.5,2.1,3v7.8h4.3v-7.8c0-1.6,0.5-3,2.4-3c2,0,2.2,1.6,2.2,3.2v7.6h4.3v-7.8
				c0-2.2,0.1-3.9-1.5-5.5C107.9,23.9,106.6,23.5,105.1,23.5"/>
			<rect x="112.7" y="23.9" class="st2" width="4.3" height="14.3"/>
			<path class="st2" d="M130.9,24.7c-0.9-0.8-2.4-1.2-3.7-1.2c-1.7,0-3,0.5-3.9,2h-0.1v-1.5h-4v14.3h4.3v-7.8c0-1.7,0.5-3,2.4-3
				c1.9,0,2.2,1.4,2.2,3v7.8h4.3v-8.9C132.5,27.6,132.3,25.8,130.9,24.7"/>
			<path class="st2" d="M145.3,25.3L145.3,25.3c-0.9-1.3-2.5-1.8-4-1.8c-4.4,0-7.2,3.5-7.2,7.7c0,4.2,2.9,7.5,7.2,7.5
				c1.5,0,3.2-0.6,3.9-2h0.1v0.4c0,2.3-1.1,3.9-3.5,3.9c-1.1,0-2-0.4-2.5-1.4h-4.9c0.1,0.8,0.4,1.5,0.9,2.2c1.4,2.1,3.8,2.8,6.3,2.8
				c2.6,0,5.8-1,7.2-3.4c0.8-1.4,0.9-3.1,0.9-4.7V23.9h-4.3V25.3z M141.8,34.7c-2.1,0-3.4-1.7-3.4-3.7c0-1.9,1.5-3.6,3.5-3.6
				c2.1,0,3.5,1.6,3.5,3.7C145.3,33.2,143.9,34.7,141.8,34.7"/>
		</g>
	</g>
</g>
</svg>
